PathFileType	4	(X/Y/Z)	C:\Git\research_data\Projects\torsion_deformities_healthy_kinematics\simulations\TD01\pre\dynamic_12_l\marker_experimental.trc
DataRate	CameraRate	NumFrames	NumMarkers	Units	OrigDataRate	OrigDataStartFrame	OrigNumFrames
200	200	6	30	mm	200	153	609
Frame#	Time	C7			T10			CLAV			STRN			RBAK			LASI			RASI			SACR			RT1			RT2			RT3			RKNE			RS1			RS2			RS3			RANK			RHEE			RTOE			LT1			LT2			LT3			LKNE			LS1			LS2			LS3			LANK			LHEE			LTOE			RHJC			LHJC		
		X1	Y1	Z1	X2	Y2	Z2	X3	Y3	Z3	X4	Y4	Z4	X5	Y5	Z5	X6	Y6	Z6	X7	Y7	Z7	X8	Y8	Z8	X9	Y9	Z9	X10	Y10	Z10	X11	Y11	Z11	X12	Y12	Z12	X13	Y13	Z13	X14	Y14	Z14	X15	Y15	Z15	X16	Y16	Z16	X17	Y17	Z17	X18	Y18	Z18	X19	Y19	Z19	X20	Y20	Z20	X21	Y21	Z21	X22	Y22	Z22	X23	Y23	Z23	X24	Y24	Z24	X25	Y25	Z25	X26	Y26	Z26	X27	Y27	Z27	X28	Y28	Z28	X29	Y29	Z29	X30	Y30	Z30	

153	0.760000	-436.529999	1245.913330	211.843552	-480.900208	1062.120483	207.913010	-311.852264	1196.998657	209.993805	-273.208649	1062.915649	204.581482	-467.926117	1173.947021	307.311157	-340.840942	852.410400	105.782158	-340.719604	864.977966	307.466797	-504.153046	897.672668	208.511688	-345.062012	664.271912	335.758636	-373.370544	604.368713	335.372925	-322.533844	604.603516	317.909454	-328.165039	469.294403	290.205963	-378.827332	339.649506	316.810211	-404.254456	278.888153	308.257294	-354.853516	280.126801	299.312134	-409.952637	86.772942	272.105347	-460.935944	76.142365	223.496918	-273.729553	63.154915	243.199081	-345.439606	672.015442	52.279167	-345.325958	604.878540	52.692451	-297.471161	624.628418	58.293781	-277.413483	461.587524	59.345505	-398.335114	378.955872	48.154644	-451.000122	340.734406	61.157219	-406.653503	315.818756	66.908752	-575.012817	218.958054	101.269203	-607.241028	243.507355	144.814514	-499.087280	96.803047	133.318207	-406.111013	805.419758	284.112014	-406.199863	796.217156	136.428418	
154	0.765000	-429.982880	1246.660522	211.887985	-474.537140	1062.916870	208.058838	-305.388062	1197.663940	210.024277	-266.911011	1063.532837	204.680649	-461.390839	1174.837769	307.439789	-334.412842	853.426392	106.186424	-334.781799	865.602783	307.935394	-497.976654	898.533936	208.531448	-340.624176	664.385559	336.047150	-369.464386	604.821167	335.572723	-318.663849	604.534851	318.084747	-326.188538	469.069061	290.481201	-377.327850	339.747009	316.996857	-403.038391	279.103638	308.493164	-353.655487	280.119110	299.451141	-409.769257	86.866951	272.143311	-460.831757	76.425446	223.534988	-273.614990	63.093513	243.247833	-337.485718	674.278442	51.974411	-336.457672	607.176453	52.148270	-288.903748	627.577332	58.021664	-266.396759	464.794647	58.919350	-386.217865	380.093079	48.047626	-438.026093	340.788483	61.158268	-393.209045	316.697205	66.513504	-559.352661	216.192856	101.253136	-592.133057	239.715912	145.042999	-479.563080	96.503143	132.238464	-400.138209	806.097483	284.298188	-399.868045	797.181496	136.570410	
155	0.770000	-423.440033	1247.363159	211.933395	-468.178650	1063.668945	208.193268	-298.928497	1198.283447	210.057968	-260.609253	1064.107300	204.794189	-454.859711	1175.681763	307.571228	-327.985504	854.386902	106.579208	-328.857910	866.166321	308.387939	-491.806946	899.346497	208.517776	-336.203217	664.419250	336.298157	-365.664551	605.204468	335.747070	-314.906342	604.331726	318.272491	-324.267181	468.839813	290.752472	-376.033508	339.856079	317.175262	-402.030334	279.337067	308.656860	-352.630310	280.115082	299.653656	-409.603363	86.977409	272.170990	-460.733490	76.724701	223.554977	-273.500641	63.030659	243.289093	-329.580811	676.471924	51.679295	-327.716736	609.427307	51.570938	-280.459625	630.418762	57.785954	-255.593307	467.933228	58.529781	-374.208008	381.056061	47.948696	-425.099457	340.642426	61.175388	-379.802734	317.428284	66.140091	-543.551025	213.192154	101.226547	-576.849854	235.653549	145.265701	-459.940887	96.104012	131.130203	-394.180551	806.719618	284.462895	-393.541756	798.094466	136.694076	
156	0.775000	-416.900665	1248.018433	211.980316	-461.823822	1064.374268	208.315063	-292.472351	1198.854614	210.095520	-254.302155	1064.635864	204.922226	-448.332367	1176.475220	307.705750	-321.560669	855.285400	106.956383	-322.947388	866.662659	308.820160	-485.643188	900.106995	208.470428	-331.812134	664.367126	336.514618	-361.978912	605.515442	335.897308	-311.269379	603.997437	318.470825	-322.403229	468.603851	291.021912	-374.944214	339.972290	317.347931	-401.230408	279.584808	308.747772	-351.779572	280.111206	299.918121	-409.456879	87.103622	272.186035	-460.640869	77.040054	223.554245	-273.388062	62.965878	243.322067	-321.720520	678.583313	51.395775	-319.085632	611.612915	50.964680	-272.121338	633.141541	57.588936	-245.001724	470.986023	58.179165	-362.293579	381.839722	47.863567	-412.209747	340.299072	61.208912	-366.428741	318.010071	65.786507	-527.603882	209.966843	101.188828	-561.383789	231.330383	145.483047	-440.229431	95.607742	129.987976	-388.238582	807.281274	284.602721	-387.223213	798.950735	136.796105	
157	0.780000	-410.364014	1248.623901	212.029144	-455.471832	1065.030273	208.423080	-286.018463	1199.374756	210.137421	-247.988846	1065.115356	205.064575	-441.808411	1177.214600	307.843536	-315.139740	856.115906	107.314034	-317.049591	867.086853	309.227936	-479.484528	900.812500	208.389130	-327.459808	664.230103	336.699036	-358.404510	605.756958	336.026459	-307.751740	603.544861	318.673706	-320.597778	468.359772	291.291626	-374.048065	340.091858	317.516937	-400.625977	279.843445	308.769562	-351.094574	280.105194	300.238525	-409.330750	87.244736	272.186218	-460.552826	77.371353	223.530426	-273.278839	62.899025	243.346756	-313.901550	680.600769	51.125462	-310.546936	613.716125	50.335709	-263.871796	635.736511	57.431633	-234.620148	473.937012	57.869816	-350.463837	382.440643	47.797462	-399.347473	339.761902	61.257931	-353.082001	318.442078	65.450409	-511.507080	206.527695	101.139252	-545.726868	226.757065	145.694687	-420.435822	95.017555	128.808746	-382.312612	807.778383	284.714464	-380.914222	799.745474	136.873443	
158	0.785000	-403.829285	1249.177124	212.080200	-449.121918	1065.635132	208.516174	-279.565704	1199.841797	210.184021	-241.668610	1065.542847	205.220795	-435.287506	1177.896973	307.984619	-308.723816	856.873108	107.648590	-311.164001	867.435547	309.607483	-473.330048	901.460754	208.273590	-323.150787	664.014648	336.853912	-354.929077	605.936707	336.139008	-304.343903	602.994263	318.872925	-318.850372	468.107666	291.563629	-373.322540	340.212128	317.683594	-400.193115	280.109985	308.729492	-350.557404	280.096252	300.604889	-409.224823	87.400002	272.169464	-460.467560	77.718590	223.481552	-273.174744	62.830353	243.363892	-306.122040	682.513428	50.869682	-302.084564	615.721375	49.692181	-255.696030	638.196411	57.313881	-224.446548	476.771362	57.604061	-338.709747	382.856659	47.754753	-386.504700	339.034668	61.320583	-339.758423	318.725159	65.129471	-495.256073	202.885666	101.077011	-529.871582	221.944992	145.899597	-400.565033	94.338730	127.591484	-376.402858	808.208171	284.795392	-374.616184	800.474479	136.923511	
